<svg width="514" height="142" fill="none" xmlns="http://www.w3.org/2000/svg">
  <path d="M329.3 36.392c-4.986-4.985-10.968-8.973-17.449-11.964-6.481-2.992-13.959-4.487-21.437-4.487-7.478 0-14.457 1.496-20.938 3.988-6.481 2.493-11.965 5.983-16.452 10.47-4.487 4.486-8.475 9.97-10.968 16.451-2.492 6.48-3.988 12.962-3.988 20.44 0 6.98 1.496 13.959 4.487 19.941 2.991 5.983 6.481 11.466 11.466 15.953 4.985 4.487 10.469 7.977 16.95 10.469 6.481 2.493 12.962 3.989 19.942 3.989 6.979 0 12.961-.997 18.944-3.49 5.982-2.493 11.466-5.484 15.953-9.472V84.75h-16.95l-8.475-19.442h44.868v51.847c-6.98 7.478-14.956 13.46-24.428 17.449-9.473 4.486-19.443 6.48-30.411 6.48-9.971 0-19.443-1.994-28.416-5.483-8.475-3.49-16.452-8.974-22.933-14.956-6.481-6.481-11.466-13.959-14.956-22.933s-5.484-17.947-5.484-27.918c0-9.97 1.994-18.944 5.983-27.419 3.988-8.475 8.973-15.455 15.953-21.936 6.481-5.982 14.457-10.967 22.932-14.457 8.475-3.49 17.947-4.985 27.42-4.985 9.97 0 19.442 1.994 28.416 5.484 8.973 3.49 16.452 8.973 22.932 15.454L329.3 36.392ZM.767 139.091c29.912-.499 26.921-25.924 25.924-74.282C25.694 19.941 26.691.997.767 0h146.071c-25.924.499-24.927 19.443-25.924 64.81-.997 48.357-3.988 73.782 25.924 74.281H.768Zm107.683-102.2C108.45 9.472 94.491.5 73.553.5S38.656 9.472 38.656 36.89c0 24.428 1.495 27.42 34.897 26.921 33.402.499 34.897-1.994 34.897-26.92ZM73.553 138.592c20.44 0 33.9-7.976 33.9-36.393 0-29.912-.997-32.903-33.9-33.401-32.903 0-33.9 3.49-33.9 33.401 0 28.417 13.46 36.393 33.9 36.393Z" fill="#0C0B0B"/>
  <path d="M172.263 63.313c11.466 0 20.938 3.49 28.416 10.47 6.979 6.98 10.469 15.953 10.469 27.419v2.991l-.498 2.493h-64.81c.997 6.481 3.989 11.965 8.475 15.953 4.986 3.988 10.968 5.982 17.948 5.982 10.469 0 17.947-3.988 22.932-11.466h12.962c-2.493 6.98-6.98 12.463-13.46 16.452-6.481 3.988-13.959 5.982-22.434 5.982-11.467 0-20.939-3.49-28.417-10.469-6.979-6.98-10.469-15.953-10.469-27.419 0-11.467 3.49-20.44 10.469-27.42 7.478-7.976 16.95-10.968 28.417-10.968Zm0 10.47c-6.98 0-12.962 1.994-17.948 5.982-4.486 3.988-7.478 8.974-8.475 15.455h53.343c-.997-6.481-3.988-11.965-8.475-15.455-4.985-3.988-10.967-5.982-18.445-5.982Zm245.776 62.316v-6.979c-6.979 6.481-15.454 9.472-25.425 9.472-10.469 0-19.443-3.49-26.921-10.968-7.478-7.478-10.967-16.451-10.967-26.92 0-10.47 3.489-19.443 10.967-26.921 7.478-7.478 16.452-10.968 26.921-10.968 9.472 0 17.947 2.991 25.425 9.472v-6.98h12.464v70.294h-12.464v.498Zm-50.352-34.897c0 6.98 2.493 12.962 7.478 17.947 4.986 4.986 10.968 7.478 17.948 7.478 6.979 0 12.961-2.492 17.947-7.478 4.985-4.985 7.478-10.967 7.478-17.947 0-6.98-2.493-12.962-7.478-17.947-4.986-4.985-10.968-7.478-17.947-7.478-6.98 0-12.962 2.493-17.948 7.478-4.985 4.985-7.478 10.968-7.478 17.947ZM510.268 64.31l1.496 18.945c-8.974 16.95-74.78 17.947-63.314 52.346h.997c-3.489-10.968 4.487-21.437 20.939-19.443 15.953 1.994 30.41 7.976 41.877-.997l.997 19.442s-3.989 3.989-13.461 3.989c-4.985 0-11.965-.997-20.938-4.487-16.452-6.481-33.402-13.46-26.921 2.991h-4.487c-15.454-38.387 61.818-70.792 61.818-70.792v-.997c-26.422 2.992-62.316 20.939-62.316 20.939l-.997-22.434h64.31v.498Z" fill="#0C0B0B"/>
</svg>
