<svg width="146" height="52" fill="none" xmlns="http://www.w3.org/2000/svg">
  <path d="M79.857 4.288c-1.179-2.573-6.325-3.216-14.686-1.715-1.287.214-2.68.536-4.074.857C60.454 1.394 58.524 0 56.38 0a5.033 5.033 0 0 0-5.038 5.038c0 .43.107.75.107 1.18-4.931 1.608-10.184 3.537-15.544 5.896-10.613 4.61-20.154 9.97-26.907 15.008C2.244 32.16-.865 36.448.208 39.02c.75 1.715 3.108 2.466 6.967 2.466 2.144 0 4.717-.215 7.719-.75 1.286-.215 2.573-.537 3.966-.858.643 2.036 2.573 3.537 4.824 3.537a5.033 5.033 0 0 0 5.039-5.038c0-.429-.108-.858-.108-1.18 5.039-1.607 10.292-3.644 15.652-5.896 10.613-4.61 20.153-9.97 26.907-15.008 6.646-5.252 9.755-9.433 8.683-12.006Zm-9.005 11.578c-6.753 5.038-16.187 10.29-26.8 14.9-5.36 2.359-10.612 4.289-15.544 5.897-.643-2.037-2.573-3.538-4.824-3.538a5.033 5.033 0 0 0-5.038 5.038c0 .43.107.75.107 1.18-1.394.321-2.68.643-3.966.857-8.04 1.394-13.293.858-14.365-1.5-1.072-2.359 2.144-6.647 8.683-11.471 6.754-5.038 16.187-10.291 26.8-14.9 5.253-2.252 10.506-4.289 15.544-5.897.643 2.037 2.573 3.645 4.824 3.645a5.033 5.033 0 0 0 5.039-5.039c0-.428-.108-.857-.215-1.286 1.394-.322 2.787-.643 4.074-.858 2.894-.536 5.467-.75 7.611-.75 3.645 0 6.003.75 6.754 2.358 1.072 2.252-2.037 6.54-8.684 11.364Zm35.591 12.649c-1.072-1.072-2.359-1.93-3.752-2.573-1.394-.643-3.002-.964-4.61-.964a12.46 12.46 0 0 0-4.502.857c-1.394.536-2.573 1.287-3.538 2.252-.965.964-1.822 2.143-2.358 3.537-.536 1.394-.858 2.787-.858 4.395 0 1.501.322 3.002.965 4.288.643 1.287 1.393 2.466 2.465 3.43A11.56 11.56 0 0 0 93.9 45.99c1.394.536 2.788.858 4.288.858 1.501 0 2.788-.215 4.074-.75 1.286-.537 2.466-1.18 3.43-2.038v-5.145h-3.644l-1.823-4.181h9.648v11.149c-1.501 1.608-3.216 2.894-5.253 3.752-2.036.965-4.18 1.393-6.539 1.393-2.144 0-4.18-.428-6.11-1.179-1.823-.75-3.538-1.93-4.931-3.216a14.047 14.047 0 0 1-3.217-4.931c-.75-1.93-1.179-3.86-1.179-6.003 0-2.144.43-4.074 1.287-5.896.857-1.823 1.93-3.323 3.43-4.717 1.394-1.287 3.109-2.358 4.931-3.109 1.823-.75 3.86-1.072 5.896-1.072 2.144 0 4.181.429 6.111 1.18 1.929.75 3.537 1.929 4.931 3.323l-2.787 3.108Z" fill="#fff"/>
  <path d="M35.798 50.599c6.432-.108 5.789-5.575 5.574-15.973-.214-9.648 0-13.722-5.574-13.936h31.41c-5.575.107-5.36 4.18-5.575 13.936-.214 10.398-.857 15.865 5.575 15.973h-31.41Zm23.155-21.976c0-5.896-3.002-7.826-7.504-7.826s-7.504 1.93-7.504 7.825c0 5.253.322 5.897 7.504 5.79 7.183.107 7.504-.43 7.504-5.79ZM51.45 50.49c4.395 0 7.29-1.715 7.29-7.825 0-6.432-.215-7.075-7.29-7.183-7.075 0-7.29.75-7.29 7.183 0 6.11 2.895 7.825 7.29 7.825Z" fill="#fff"/>
  <path d="M72.675 34.304c2.466 0 4.502.75 6.11 2.251 1.501 1.501 2.252 3.43 2.252 5.896v.643l-.108.536H66.993c.215 1.394.858 2.573 1.823 3.43 1.072.858 2.358 1.287 3.859 1.287 2.251 0 3.86-.857 4.931-2.465h2.787c-.536 1.5-1.5 2.68-2.894 3.537-1.394.858-3.002 1.287-4.824 1.287-2.466 0-4.502-.75-6.11-2.252-1.501-1.5-2.252-3.43-2.252-5.895 0-2.466.75-4.396 2.251-5.896 1.609-1.716 3.645-2.359 6.11-2.359Zm0 2.251c-1.5 0-2.787.43-3.86 1.287-.964.857-1.607 1.93-1.822 3.323h11.47c-.214-1.394-.857-2.573-1.822-3.323-1.072-.858-2.358-1.287-3.966-1.287Zm52.85 13.4v-1.5c-1.501 1.393-3.324 2.036-5.468 2.036-2.251 0-4.18-.75-5.788-2.358-1.608-1.608-2.359-3.538-2.359-5.789s.751-4.18 2.359-5.789c1.608-1.608 3.537-2.358 5.788-2.358 2.037 0 3.86.643 5.468 2.037v-1.501h2.68v15.115h-2.68v.107Zm-10.828-7.504c0 1.501.536 2.788 1.608 3.86s2.359 1.608 3.86 1.608c1.5 0 2.787-.536 3.859-1.608s1.608-2.359 1.608-3.86c0-1.5-.536-2.787-1.608-3.859s-2.359-1.608-3.859-1.608c-1.501 0-2.788.536-3.86 1.608s-1.608 2.358-1.608 3.86Zm30.66-7.932.321 4.073c-1.929 3.645-16.08 3.86-13.614 11.256h.214c-.75-2.358.965-4.61 4.503-4.18 3.43.428 6.539 1.715 9.005-.215l.214 4.18s-.858.858-2.894.858c-1.072 0-2.573-.214-4.503-.965-3.537-1.393-7.182-2.894-5.789.644h-.964c-3.324-8.255 13.292-15.223 13.292-15.223v-.214c-5.681.643-13.4 4.502-13.4 4.502l-.214-4.824h13.829v.108Z" fill="#fff"/>
</svg>
