<svg width="232" height="82" fill="none" xmlns="http://www.w3.org/2000/svg">
  <path d="M126.896 6.814c-1.873-4.088-10.05-5.11-23.337-2.726-2.044.341-4.259.852-6.473 1.363C96.064 2.214 92.998 0 89.59 0a7.997 7.997 0 0 0-8.007 8.006c0 .682.17 1.193.17 1.874-7.835 2.555-16.182 5.621-24.7 9.37C40.19 26.573 25.03 35.09 14.299 43.097 3.566 51.104-1.374 57.918.329 62.006c1.193 2.725 4.94 3.918 11.073 3.918 3.407 0 7.495-.34 12.265-1.193 2.044-.34 4.088-.851 6.303-1.362 1.022 3.236 4.088 5.621 7.665 5.621a7.997 7.997 0 0 0 8.006-8.006c0-.681-.17-1.363-.17-1.874 8.006-2.555 16.353-5.792 24.87-9.369 16.865-7.325 32.026-15.842 42.757-23.848 10.562-8.347 15.502-14.99 13.798-19.08ZM112.587 25.21c-10.731 8.007-25.722 16.353-42.586 23.678-8.517 3.748-16.864 6.814-24.7 9.37-1.022-3.237-4.089-5.622-7.666-5.622a7.997 7.997 0 0 0-8.006 8.006c0 .682.17 1.193.17 1.874-2.214.511-4.258 1.022-6.302 1.363C10.72 66.094 2.373 65.243.67 61.495c-1.703-3.748 3.407-10.561 13.798-18.227C25.2 35.262 40.19 26.915 57.055 19.59c8.347-3.578 16.694-6.814 24.7-9.37 1.022 3.237 4.088 5.792 7.665 5.792a7.997 7.997 0 0 0 8.007-8.006c0-.681-.17-1.362-.341-2.044 2.214-.51 4.429-1.022 6.473-1.363 4.599-.851 8.688-1.192 12.095-1.192 5.791 0 9.539 1.192 10.731 3.748 1.704 3.577-3.236 10.39-13.798 18.056Zm56.555 20.102c-1.703-1.704-3.748-3.066-5.962-4.088-2.215-1.022-4.77-1.534-7.325-1.534-2.555 0-4.94.512-7.155 1.363-2.214.852-4.088 2.044-5.621 3.578-1.533 1.533-2.896 3.406-3.748 5.62-.851 2.215-1.362 4.43-1.362 6.985 0 2.385.511 4.77 1.533 6.814 1.022 2.044 2.214 3.918 3.918 5.451 1.703 1.533 3.577 2.725 5.792 3.577 2.214.852 4.429 1.363 6.813 1.363 2.385 0 4.429-.34 6.474-1.192 2.044-.852 3.917-1.874 5.451-3.237v-8.177h-5.792l-2.896-6.643h15.331v17.716c-2.385 2.555-5.11 4.6-8.347 5.962-3.236 1.533-6.643 2.215-10.391 2.215-3.407 0-6.643-.682-9.71-1.874-2.896-1.193-5.621-3.067-7.836-5.11a22.322 22.322 0 0 1-5.11-7.837c-1.192-3.066-1.874-6.132-1.874-9.539s.682-6.473 2.044-9.369c1.363-2.896 3.067-5.28 5.451-7.495 2.215-2.044 4.94-3.748 7.836-4.94 2.896-1.193 6.133-1.704 9.369-1.704 3.407 0 6.644.682 9.71 1.874 3.066 1.192 5.622 3.066 7.836 5.28l-4.429 4.94Z" fill="#2D409A"/>
  <path d="M56.884 80.403c10.221-.17 9.199-8.858 8.858-25.381-.34-15.331 0-21.804-8.858-22.145h49.912c-8.858.17-8.518 6.643-8.858 22.145-.341 16.524-1.363 25.211 8.858 25.381H56.884Zm36.795-34.92c0-9.37-4.77-12.436-11.924-12.436-7.155 0-11.924 3.067-11.924 12.436 0 8.347.51 9.369 11.924 9.198 11.413.17 11.924-.681 11.924-9.198Zm-11.924 34.75c6.984 0 11.583-2.725 11.583-12.435 0-10.22-.34-11.243-11.583-11.413-11.243 0-11.584 1.192-11.584 11.413 0 9.71 4.6 12.435 11.584 12.435Z" fill="#2D409A"/>
  <path d="M115.483 54.51c3.918 0 7.155 1.193 9.71 3.578 2.385 2.385 3.577 5.451 3.577 9.369v1.022l-.17.852h-22.145c.341 2.214 1.363 4.088 2.896 5.45 1.703 1.364 3.747 2.045 6.132 2.045 3.578 0 6.133-1.363 7.836-3.918h4.429c-.852 2.385-2.385 4.259-4.599 5.621-2.215 1.363-4.77 2.045-7.666 2.045-3.918 0-7.154-1.193-9.709-3.578-2.385-2.384-3.578-5.45-3.578-9.369 0-3.918 1.193-6.984 3.578-9.369 2.555-2.725 5.791-3.747 9.709-3.747Zm0 3.578c-2.385 0-4.429.681-6.132 2.044-1.533 1.363-2.555 3.066-2.896 5.28h18.227c-.341-2.214-1.363-4.087-2.896-5.28-1.703-1.363-3.748-2.044-6.303-2.044Zm83.981 21.293v-2.385c-2.385 2.215-5.281 3.237-8.688 3.237-3.577 0-6.643-1.193-9.199-3.748-2.555-2.555-3.747-5.621-3.747-9.198 0-3.578 1.192-6.644 3.747-9.2 2.556-2.554 5.622-3.747 9.199-3.747 3.237 0 6.133 1.022 8.688 3.237v-2.385h4.258v24.019h-4.258v.17Zm-17.205-11.924c0 2.385.852 4.429 2.555 6.132 1.703 1.704 3.748 2.556 6.132 2.556 2.385 0 4.429-.852 6.133-2.556 1.703-1.703 2.555-3.747 2.555-6.132s-.852-4.429-2.555-6.132c-1.704-1.704-3.748-2.556-6.133-2.556-2.384 0-4.429.852-6.132 2.556-1.703 1.703-2.555 3.747-2.555 6.132Zm48.719-12.605.511 6.473c-3.066 5.791-25.552 6.132-21.634 17.886h.341c-1.193-3.748 1.533-7.325 7.154-6.644 5.451.682 10.391 2.726 14.309-.34L232 78.87s-1.363 1.363-4.599 1.363c-1.704 0-4.089-.34-7.155-1.533-5.621-2.215-11.413-4.6-9.198 1.022h-1.534c-5.28-13.117 21.123-24.19 21.123-24.19v-.34c-9.028 1.022-21.293 7.155-21.293 7.155l-.341-7.666h21.975v.17Z" fill="#2D409A"/>
</svg>
